<svg viewBox="0 0 857.1 248.55" xmlns="http://www.w3.org/2000/svg"><g transform="translate(-176.7 -463.87)"><g fill="#fc7924"><path d="m236.51 650.46-29.28-39.75-9.83 12.18-.63 26.92a3.54 3.54 0 0 1 -1 2.56 3.38 3.38 0 0 1 -2.51 1.07h-12.38a3.37 3.37 0 0 1 -2.51-1.07 3.52 3.52 0 0 1 -1-2.56l-.63-34.4v-42.52l.63-76.29a3.53 3.53 0 0 1 1-2.56 3.39 3.39 0 0 1 2.51-1.07h12.34a3.4 3.4 0 0 1 2.51 1.07 3.55 3.55 0 0 1 1 2.56l.63 76.29v16.88l32.64-39.11a6.5 6.5 0 0 1 5.44-2.78h14.46a3.26 3.26 0 0 1 2.51 1.17 3.92 3.92 0 0 1 1 2.67 3.74 3.74 0 0 1 -.84 2.35l-31 38.89a1.46 1.46 0 0 0 -.21 2.14l37 52.35a3.23 3.23 0 0 1 .84 2.35 3.38 3.38 0 0 1 -1.15 2.56 3.73 3.73 0 0 1 -2.61 1.07h-13.07a7.08 7.08 0 0 1 -5.86-2.97z"/><path d="m369.32 620.11q0 10.69-.42 18.8t-.63 10.26a4.14 4.14 0 0 1 -1.25 3 4.21 4.21 0 0 1 -3.14 1.28h-11.08a3.76 3.76 0 0 1 -2.72-1.28 5 5 0 0 1 -1.46-3l-.21-9.4a.73.73 0 0 0 -.31-.64.56.56 0 0 0 -.73.21q-4.19 6-13 10a40.29 40.29 0 0 1 -16.94 4.06 50 50 0 0 1 -25.93-7.05 51.36 51.36 0 0 1 -18.82-19.23 52.84 52.84 0 0 1 -6.9-26.5 52.81 52.81 0 0 1 25.74-45.62 49.48 49.48 0 0 1 25.93-7.16 48.82 48.82 0 0 1 25.1 6.73 52.72 52.72 0 0 1 26.14 43.49q.63 11.8.63 22.05zm-36.5 7.69a31.1 31.1 0 0 0 11.08-11.54 31.75 31.75 0 0 0 4.1-15.81 30.59 30.59 0 0 0 -4.18-15.71 31.37 31.37 0 0 0 -11.19-11.33 29.53 29.53 0 0 0 -15.37-4.17 28.6 28.6 0 0 0 -15.16 4.27 32.21 32.21 0 0 0 -11.21 11.49 31.58 31.58 0 0 0 0 31.41 32.15 32.15 0 0 0 11.19 11.43 29.79 29.79 0 0 0 30.74-.04z"/><path d="m493.76 620.11q0 10.69-.42 18.8t-.63 10.26a4.14 4.14 0 0 1 -1.25 3 4.21 4.21 0 0 1 -3.14 1.28h-11.08a3.76 3.76 0 0 1 -2.72-1.28 5 5 0 0 1 -1.46-3l-.21-9.4a.73.73 0 0 0 -.31-.64.56.56 0 0 0 -.73.21q-4.19 6-13 10a40.29 40.29 0 0 1 -16.94 4.06 50 50 0 0 1 -25.87-7.01 51.36 51.36 0 0 1 -18.82-19.23 52.84 52.84 0 0 1 -6.9-26.5 52.81 52.81 0 0 1 25.72-45.66 49.48 49.48 0 0 1 25.93-7.16 48.82 48.82 0 0 1 25.1 6.73 52.72 52.72 0 0 1 26.14 43.49q.59 11.8.59 22.05zm-36.5 7.69a31.1 31.1 0 0 0 11.08-11.54 31.75 31.75 0 0 0 4.08-15.81 30.59 30.59 0 0 0 -4.18-15.71 31.37 31.37 0 0 0 -11.19-11.33 29.53 29.53 0 0 0 -15.37-4.17 28.6 28.6 0 0 0 -15.16 4.27 32.21 32.21 0 0 0 -11.19 11.49 31.58 31.58 0 0 0 0 31.41 32.15 32.15 0 0 0 11.19 11.43 29.79 29.79 0 0 0 30.74-.04z"/><path d="m668.81 649.6a3.91 3.91 0 0 1 -1 2.67 3.47 3.47 0 0 1 -2.72 1.17h-11.76a3.56 3.56 0 0 1 -2.61-1.17 3.71 3.71 0 0 1 -1.15-2.67l-.63-56.84q0-11.75-6.9-18.38a23 23 0 0 0 -16.52-6.62 22.78 22.78 0 0 0 -16.31 6.62q-6.9 6.63-6.9 18.38l-.63 56.84a3.91 3.91 0 0 1 -1 2.67 3.47 3.47 0 0 1 -2.72 1.17h-11.76a3.56 3.56 0 0 1 -2.61-1.17 3.71 3.71 0 0 1 -1.15-2.67l-.84-56.84q0-11.75-6.9-18.38a22.78 22.78 0 0 0 -16.31-6.62 23.14 23.14 0 0 0 -16.39 6.62q-7 6.63-7 18.38l-.63 56.84a3.91 3.91 0 0 1 -1 2.67 3.47 3.47 0 0 1 -2.72 1.17h-11.8a3.56 3.56 0 0 1 -2.61-1.17 3.71 3.71 0 0 1 -1.15-2.67l-.63-59.19.21-36.75a3.62 3.62 0 0 1 1.15-2.78 3.74 3.74 0 0 1 2.61-1.07h12.57a3.4 3.4 0 0 1 2.51 1.07 4.49 4.49 0 0 1 1.25 2.56v5.56a24.5 24.5 0 0 1 10.35-8.33 35 35 0 0 1 14.12-2.78 45 45 0 0 1 18.93 4.27 38.45 38.45 0 0 1 15 11.75q11.92-16 32.42-16 14.43 0 24.26 6.3a39.84 39.84 0 0 1 14.75 16.56 50.31 50.31 0 0 1 4.92 22z"/></g><g fill="#fff"><path d="m752 504.08a54.83 54.83 0 0 1 28 7.16q12.34 7.16 22.59 22.76a3.52 3.52 0 0 1 .63 2.14 3.64 3.64 0 0 1 -1.88 3.42l-11.71 6.84-1.67.43a3.43 3.43 0 0 1 -3.14-1.71 41.58 41.58 0 0 0 -14.75-14.21 39.25 39.25 0 0 0 -19.35-4.81 49.82 49.82 0 0 0 -7.95.64q-11.09 1.71-17.46 7.27t-6.31 12.59q0 8.76 9.41 15.81a39.44 39.44 0 0 0 11.19 6q6.17 2.14 16 4.49a161 161 0 0 1 18.4 5.1 39.42 39.42 0 0 1 13.28 8.23q6.17 5.66 9.1 15.49a41.21 41.21 0 0 1 2.09 12.82 32.3 32.3 0 0 1 -7 20.62 45 45 0 0 1 -18.82 13.68 68.46 68.46 0 0 1 -26 4.81q-36.39 0-53.54-28.85a3.89 3.89 0 0 1 -.63-1.92 3.58 3.58 0 0 1 2.09-3.42l12.13-6.41a3.37 3.37 0 0 1 1.88-.43 3 3 0 0 1 2.72 1.28q13.38 18 35.14 18 14 0 22.06-5t8.05-12.29q0-6.41-6.69-12.18t-19.45-8.55a184.87 184.87 0 0 1 -19-5.45 60.21 60.21 0 0 1 -15.48-8.23 48 48 0 0 1 -14.33-15.81 37.51 37.51 0 0 1 -4.71-17.95 35.28 35.28 0 0 1 5.11-18.32 44.09 44.09 0 0 1 14.74-14.74 60.15 60.15 0 0 1 22.8-8.23 89 89 0 0 1 12.46-1.07z"/><path d="m921.67 620.11q0 10.69-.42 18.8t-.63 10.26a4.14 4.14 0 0 1 -1.25 3 4.21 4.21 0 0 1 -3.14 1.28h-11.08a3.76 3.76 0 0 1 -2.72-1.28 5 5 0 0 1 -1.46-3l-.21-9.4a.73.73 0 0 0 -.31-.64.56.56 0 0 0 -.73.21q-4.19 6-13 10a40.29 40.29 0 0 1 -16.94 4.06 50 50 0 0 1 -25.93-7.05 51.37 51.37 0 0 1 -18.85-19.19 52.83 52.83 0 0 1 -6.9-26.5 52.81 52.81 0 0 1 25.77-45.66 49.47 49.47 0 0 1 25.93-7.16 48.82 48.82 0 0 1 25.1 6.73 52.72 52.72 0 0 1 26.1 43.53q.67 11.76.67 22.01zm-36.5 7.69a31.11 31.11 0 0 0 11.08-11.54 31.76 31.76 0 0 0 4.08-15.81 30.6 30.6 0 0 0 -4.18-15.71 31.38 31.38 0 0 0 -11.15-11.32 29.53 29.53 0 0 0 -15.37-4.17 28.6 28.6 0 0 0 -15.16 4.27 32.22 32.22 0 0 0 -11.23 11.48 31.58 31.58 0 0 0 0 31.41 32.15 32.15 0 0 0 11.19 11.43 29.79 29.79 0 0 0 30.74-.04z"/><path d="m954.5 710.5a4.22 4.22 0 0 1 -.42-4.06l18.61-53-38.48-96.16a3 3 0 0 1 -.21-1.28 3.8 3.8 0 0 1 1-2.78 3.39 3.39 0 0 1 2.51-1.07h13a3.49 3.49 0 0 1 3.35 2.35l30.14 70.31 29.91-70.3a3.63 3.63 0 0 1 3.56-2.35h12.76a3.31 3.31 0 0 1 2.93 1.6 3.93 3.93 0 0 1 .42 3.53l-59.58 152.36a3.77 3.77 0 0 1 -1.57 2 4.7 4.7 0 0 1 -2.61.75h-11.76a4 4 0 0 1 -3.56-1.9z"/></g><path d="m750.37 463.87c-25.34 0-45.87 22.17-45.87 49.52h91.75c0-27.39-20.54-49.52-45.88-49.52z" fill="#fc7924"/><path d="m739.69 508v-33.4c-16.36 1.4-29.21 15.4-29.21 32.54v.82h29.19z" fill="#f7941e"/><path d="m761.14 508h29.19c0-.27 0-.54 0-.82 0-17.1-12.85-31.13-29.21-32.58v33.4z" fill="#f7941e"/></g><g fill="#f7941e"><path d="m565.8 4.11h3.79v39.87h-3.79z"/><path d="m577.85 4.11h3.79v39.87h-3.79z"/><path d="m571.83 4.11h3.79v39.87h-3.79z"/><path d="m701.14 518h100.38c6.52 0 3.31-10.53-1.9-10.53h-100.38c-6.52 0-3.31 10.53 1.9 10.53z" transform="translate(-176.7 -463.87)"/></g><path d="m265.62 660.34s.78.58 2.27 1.59 3.7 2.46 6.56 4.17 6.35 3.74 10.46 5.83c2 1.08 4.25 2.12 6.56 3.25s4.77 2.23 7.4 3.25c5.16 2.21 10.88 4.25 17 6.17 1.53.44 3.08.92 4.64 1.4s3.18.83 4.8 1.26l2.44.63 2.48.55 5 1.1a196.68 196.68 0 0 0 21.09 2.86c3.6.42 7.26.36 10.92.59.91.06 1.83.06 2.75 0h2.76c1.84 0 3.68 0 5.52-.07l5.52-.28c1.84-.09 3.68-.15 5.5-.39s3.65-.39 5.48-.55c.91-.09 1.82-.15 2.73-.27l2.71-.41c7.21-1 14.29-2.31 21.1-3.86l5.06-1.21c1.67-.41 3.34-.76 5-1.25 3.25-.91 6.42-1.84 9.54-2.69s6-2 9-2.91c1.45-.47 2.9-.89 4.28-1.39l4.06-1.51 7.68-2.77c2.42-.93 4.68-1.91 6.85-2.75s4.18-1.67 6.07-2.39 3.55-1.54 5.1-2.18c3.07-1.34 5.55-2.32 7.21-3l2.59-1-2.18 1.71c-1.44 1.09-3.53 2.73-6.27 4.74-1.37 1-2.86 2.15-4.56 3.28s-3.56 2.31-5.55 3.59-4.12 2.63-6.39 4l-7.32 4-3.94 2.13c-1.35.71-2.76 1.33-4.18 2-2.86 1.34-5.82 2.73-8.89 4.1s-6.35 2.49-9.65 3.78c-1.64.69-3.35 1.2-5.08 1.75l-5.22 1.66-2.65.84c-.89.28-1.8.48-2.71.71l-5.5 1.37c-3.67 1-7.5 1.61-11.32 2.32l-2.88.52c-1 .16-1.94.26-2.91.39-1.95.26-3.91.48-5.87.7s-3.94.36-5.92.48l-5.94.36c-2 .07-4 0-6 0h-3c-1 0-2 0-3-.08q-3-.16-5.92-.37c-2-.09-3.92-.34-5.86-.58s-3.88-.45-5.8-.72l-5.7-1-2.82-.52-2.77-.65-5.47-1.34-5.3-1.58c-.87-.27-1.75-.51-2.61-.8l-2.57-.9c-1.68-.62-3.35-1.19-5-1.82s-3.21-1.32-4.77-2a140.2 140.2 0 0 1 -17-8.75c-2.54-1.49-4.88-3.1-7.11-4.57s-4.26-3-6.11-4.53a110.26 110.26 0 0 1 -9.29-8.09c-2.46-2.35-4.21-4.4-5.41-5.75s-1.69-2.15-1.69-2.15z" fill="#fc7924" transform="translate(-176.7 -463.87)"/></svg>